<?xml version="1.0" encoding="utf-8"?>
<!-- Generator: Adobe Illustrator 25.2.1, SVG Export Plug-In . SVG Version: 6.00 Build 0)  -->
<svg version="1.1" xmlns="http://www.w3.org/2000/svg" xmlns:xlink="http://www.w3.org/1999/xlink" x="0px" y="0px"
	 viewBox="0 0 102 102" style="enable-background:new 0 0 102 102;" xml:space="preserve">
<style type="text/css">
	.st0{fill:#FFFFFF;}
	.st1{fill:#09C999;}
</style>
<g id="Layer_2">
	<rect class="st0" width="102" height="102"/>
</g>
<g id="Layer_1">
	<circle class="st1" cx="51" cy="51" r="40"/>
	<g>
		<path class="st0" d="M47.9,25.7c0-1.2,0.3-2.1,0.9-2.7c0.6-0.6,1.3-0.8,2.2-0.8c0.9,0,1.6,0.3,2.2,0.9c0.6,0.6,0.9,1.5,0.9,2.7
			c0,1.2-0.3,2.1-0.9,2.7c-0.6,0.6-1.4,0.9-2.2,0.9c-0.9,0-1.6-0.3-2.2-0.9C48.2,27.7,47.9,26.8,47.9,25.7z M53.7,70.2h-5.3V35.2
			h5.3V70.2z"/>
	</g>
</g>
</svg>
